Coordinates
version=1
nRows=27
nColumns=12
inDegrees=yes

Units are S.I. units (second, meters, Newtons, ...)
Angles are in degrees

endheader
time	SC_y	SC_z	SC_x	AC_y	AC_z	AC_x	GH_y	GH_z	GH_yy	EL_x	PS_y
       0.0              -50.04        -0.7405          16.98           34.4          1.925         -6.847         -12.64          1.976          91.04          55.88          130.5
   0.03205              -50.04        -0.7405          16.99           34.4          1.926         -6.844         -12.62          1.976          91.01          55.88          130.5
    0.0641              -50.04        -0.7404          16.99          34.41          1.927          -6.84         -12.61          1.975          90.98          55.87          130.5
   0.09616              -50.03        -0.7404           17.0          34.41          1.928         -6.836         -12.59          1.975          90.94          55.86          130.5
    0.1282              -50.03        -0.7404          17.01          34.41          1.929         -6.832         -12.57          1.975          90.91          55.85          130.5
    0.1603              -50.02        -0.7403          17.01          34.42          1.931         -6.828         -12.55          1.974          90.87          55.84          130.5
    0.1923              -50.02        -0.7402          17.02          34.42          1.932         -6.823         -12.52          1.974          90.83          55.83          130.4
    0.2244              -50.01        -0.7402          17.03          34.43          1.933         -6.818          -12.5          1.974          90.78          55.82          130.4
    0.2564               -50.0        -0.7401          17.04          34.43          1.935         -6.813         -12.47          1.973          90.73          55.81          130.4
    0.2885               -50.0        -0.7401          17.05          34.44          1.936         -6.807         -12.45          1.973          90.68           55.8          130.4
    0.3205              -49.99          -0.74          17.06          34.45          1.938         -6.801         -12.42          1.972          90.62          55.79          130.4
    0.3526              -49.98        -0.7399          17.07          34.45           1.94         -6.794         -12.39          1.972          90.56          55.77          130.4
    0.3846              -49.97        -0.7398          17.08          34.46          1.941         -6.787         -12.35          1.971           90.5          55.76          130.3
    0.4167              -49.96        -0.7397          17.09          34.47          1.944         -6.779         -12.31           1.97          90.43          55.74          130.3
    0.4487              -49.95        -0.7396           17.1          34.47          1.946          -6.77         -12.27           1.97          90.35          55.72          130.3
    0.4808              -49.94        -0.7395          17.12          34.48          1.948         -6.761         -12.23          1.969          90.27           55.7          130.3
    0.5128              -49.93        -0.7394          17.13          34.49          1.951         -6.751         -12.18          1.968          90.18          55.68          130.2
    0.5449              -49.92        -0.7393          17.15           34.5          1.954          -6.74         -12.13          1.967          90.08          55.66          130.2
    0.5769               -49.9        -0.7391          17.17          34.51          1.957         -6.729         -12.07          1.966          89.97          55.64          130.2
     0.609              -49.89         -0.739          17.19          34.53           1.96         -6.716         -12.01          1.965          89.86          55.61          130.1
     0.641              -49.87        -0.7388          17.21          34.54          1.964         -6.701         -11.94          1.964          89.73          55.58          130.1
    0.6731              -49.85        -0.7386          17.24          34.56          1.968         -6.686         -11.87          1.963          89.59          55.55          130.1
    0.7051              -49.83        -0.7384          17.26          34.57          1.973         -6.669         -11.79          1.961          89.43          55.51          130.0
    0.7372              -49.81        -0.7382          17.29          34.59          1.978         -6.649          -11.7          1.959          89.26          55.47          130.0
    0.7693              -49.79        -0.7379          17.33          34.61          1.983         -6.628         -11.59          1.958          89.07          55.43          129.9
    0.8013              -49.76        -0.7377          17.36          34.63           1.99         -6.604         -11.48          1.956          88.85          55.38          129.8
    0.8334              -49.73        -0.7374          17.41          34.66          1.997         -6.578         -11.35          1.953          88.61          55.32          129.7
